<svg xmlns="http://www.w3.org/2000/svg" width="150" height="50" version="1"><path d="M97.927 21.069l.83-.836h.85l.91-.897h.778l.859-.844h1.725l.84.844h2.585l.925.921v1.748l1.592 1.657h5.19l.839.844h2.508v1.688h-.888l-.8.8v.941h-1.788l-1.653.844h-3.886s-.296.26-.313.972l-.018.716h4.281v12.767S99.6 43.208 99.03 43.2c-.561-.008-1.109-.793-1.103-1.268.005-.476 0-20.863 0-20.863zm34.9 18.203l-1.505 1.43h-1.675v-1.738s1.554-.847 1.841-.847h.48v-1.98l-.897-.893v-.849l-.82-.815h-.868l-.001-.818-5.939-5.987h-.84l-1.766-1.769v-1.621l.883-.883h.86l1.696-1.703s-1.587-2.348-2.422-3.136c-.322.408-.421.616-.994.891-.587.283-.524.131-1.17.532-.34.195-1.038-.348-.296-.71.862-.418.921-.561.966-.708.072-.239-.153-.127-.802.071-.408.126-.224.103-.716.156-.122.17-.851.832-1.176.954-.24.305-.245.303-.397.44-.588.534-1.056-.311-.623-.484.426-.169.31-.418.612-.685.492-.556.985-1.099 1.402-1.473.6-.351 1.523-.732 2.33-.983.879-.272 1.52.481 1.52.481l2.678 2.928h2.483l.868-.873v-.861l.844-.772v-.862l-.844-.762V11.47l-.87-.834-.847-.004-.839-.844h-.857l-1.687 1.688h-.86v-.871l-1.742-1.739V6.33l-.844-.839v-.857s1.624-1.919 3.25-2.288c.232-.053 1.037-.216 1.566-.22.948-.007.965-.005 1.198.131.13.076.918.385.976.41.446.192.788.34.85.435.06.094.204.313.32.488.114.174.265.493.333.708.116.363.99 2.125 1.802 2.94l.809.81h2.09c1.521 0 2.598.122 3.45.459 1.06.418 2.194 1.206 3.728 2.763 0 0 1.464 1.536 2.21 2.564.745 1.027 1.316 2.967 1.316 4.01v1.229h.804l.844-.844h2.598l1.715 1.785v.852s-.936.003-1.12.18l-.568.649v2.6h-.869l-.864-.86-.852.849v3.326l-1.75 1.75h-.854l-.825.825v.85l-.844.844v5.95l.872.868h5.986v1.688h-1.76l-.845.844h-5.088l-.8.793v.948h-1.794v-2.585h-1.708l-.84.84-.855.03-.844 1.71-.818.005.014-3.698zm5.735-3.26l.739-.75v-4.425h-.714l-1.474-1.477h-.431l-1.881.738h-1.432l-.768-.762V27.83h-.715l-.733-.739h-.767v1.454l.79.786v.744l.74.733v1.512l1.45 1.414 1.48.004.376.383c.324.328.43.488.75 1.133.36.723.375.766.375 1.133v.382l.71.715h1.505v-1.472zM136.77 17.3l-.739-.662v-.76l-.738-.734-.453-1.506c-.284.025-.454.108-.758.428S133.6 15.2 133.6 15.2l-.899 4.994 4.068.146V17.3zm-30.043.985l-3.432-.005-.839-.844H99.05V12.23l.884-.03c.97-.033 1.334-.105 2.17-.428 1.248-.482 2.705-1.393 4.384-2.74l.238-.191 2.546-.002s.064.397.064.591c.002.816.225 2.056.811 4.5.542 2.262.723 3.297.8 4.577l.035.567-3.412-.002-.844-.785z" fill="#602600"/><g transform="translate(-66.883 -286.342) scale(.4295)" fill-rule="evenodd"><rect width="21.555" height="76.591" x="155.722" y="691.022" ry="7.074" rx="7.074" fill="#863601"/><rect width="21.555" height="22" x="181.08" y="720.254" ry="7.074" rx="7.074" fill="#9a3d00"/><rect width="21.555" height="59.134" x="669.982" y="-329.893" ry="7.074" rx="7.074" transform="rotate(90)" fill="#d65502"/><rect rx="7.074" ry="7.074" y="683.012" x="206.439" height="84.601" width="21.555" fill="#ae4502"/><rect transform="rotate(90)" rx="7.074" ry="7.074" y="-303.612" x="695.34" height="59.134" width="21.555" fill="#c24d02"/><rect width="21.555" height="59.134" x="746.058" y="-303.612" ry="7.074" rx="7.074" transform="rotate(90)" fill="#c24d01"/><rect transform="rotate(90)" rx="7.074" ry="7.074" y="-329.893" x="720.699" height="59.134" width="21.555" fill="#d65502"/><rect rx="7.074" ry="7.074" y="670.178" x="347.913" height="97.435" width="22.062" fill="#e85d03"/><rect rx="7.074" ry="7.074" y="670.354" x="181.08" height="32" width="21.555" fill="#9a3d00"/></g><g style="line-height:0%;-inkscape-font-specification:'sans-serif Bold'" font-weight="700" font-size="5.625" font-family="sans-serif" letter-spacing="0" word-spacing="0" fill="#803300"><path d="M7.977 47.989H6.324l-.261.747H5l1.519-4.1h1.26l1.52 4.1H8.234l-.258-.747zm-1.39-.76h1.124l-.56-1.632-.563 1.631zM9.796 44.462h.983v2.327l1.131-1.13h1.143l-1.502 1.413 1.62 1.664H11.98l-1.2-1.283v1.283h-.983v-4.274zM14.92 47.352q-.307 0-.464.104-.153.104-.153.308 0 .186.123.294.127.104.35.104.276 0 .466-.198.19-.2.19-.5v-.112h-.511zm1.503-.371v1.755h-.991v-.456q-.198.28-.445.41-.248.126-.602.126-.478 0-.777-.278-.297-.28-.297-.725 0-.54.37-.794.374-.252 1.171-.252h.58v-.077q0-.234-.185-.34-.184-.11-.574-.11-.315 0-.587.063-.272.063-.506.19v-.75q.316-.078.635-.116.318-.041.637-.041.832 0 1.2.33.371.326.371 1.065zM19.436 46.11v-1.648h.989v4.274h-.989v-.445q-.203.272-.448.398-.244.127-.565.127-.569 0-.934-.45-.366-.454-.366-1.165 0-.712.366-1.162.365-.453.934-.453.318 0 .563.129.247.126.45.395zm-.648 1.992q.316 0 .48-.231.168-.23.168-.67 0-.44-.168-.67-.164-.231-.48-.231-.313 0-.48.23-.166.231-.166.67 0 .44.165.67.168.232.48.232zM24.446 47.19v.28h-2.3q.037.346.25.519.215.173.6.173.31 0 .634-.09.327-.094.67-.28v.757q-.349.132-.697.198-.35.069-.698.069-.835 0-1.3-.423-.46-.426-.46-1.192 0-.753.453-1.184.456-.431 1.252-.431.725 0 1.16.436.436.437.436 1.168zm-1.01-.327q0-.28-.166-.45-.162-.174-.425-.174-.286 0-.465.162-.178.16-.222.462h1.277zM28.038 46.17q.187-.285.443-.433.258-.151.565-.151.53 0 .808.327.277.326.277.95v1.873h-.989v-1.604q.003-.036.003-.074.003-.039.003-.11 0-.327-.096-.472-.096-.149-.31-.149-.28 0-.435.231-.15.23-.156.667v1.511h-.989v-1.604q0-.51-.088-.656-.088-.149-.313-.149-.283 0-.437.234-.153.23-.153.662v1.513h-.99V45.66h.99v.45q.18-.26.414-.392.237-.132.52-.132.318 0 .562.153.245.154.371.432zM31.054 45.66h.983v3.076h-.983V45.66zm0-1.198h.983v.802h-.983v-.802zM35.473 45.756v.802q-.2-.137-.403-.203-.2-.066-.418-.066-.412 0-.643.242-.228.238-.228.67 0 .43.228.673.231.239.643.239.23 0 .437-.07.209-.068.384-.202v.804q-.23.086-.47.127-.236.044-.474.044-.833 0-1.302-.426-.47-.429-.47-1.19 0-.76.47-1.186.47-.428 1.302-.428.241 0 .475.044.236.04.47.126zM36.328 44.462h.983v2.327l1.131-1.13h1.143l-1.502 1.413 1.62 1.664h-1.192l-1.2-1.283v1.283h-.983v-4.274zM40.074 45.66h.983v3.076h-.983V45.66zm0-1.198h.983v.802h-.983v-.802zM45.078 47.19v.28H42.78q.036.346.25.519.214.173.599.173.31 0 .634-.09.327-.094.67-.28v.757q-.348.132-.697.198-.349.069-.698.069-.835 0-1.299-.423-.461-.426-.461-1.192 0-.753.453-1.184.456-.431 1.252-.431.725 0 1.16.436.436.437.436 1.168zm-1.01-.327q0-.28-.165-.45-.162-.174-.426-.174-.286 0-.464.162-.179.16-.223.462h1.277zM50.673 44.764v.868q-.338-.15-.66-.228-.32-.076-.606-.076-.38 0-.56.104-.182.104-.182.324 0 .165.121.258.124.09.445.157l.45.09q.684.138.973.418.288.28.288.796 0 .679-.404 1.011-.4.33-1.227.33-.39 0-.783-.074-.393-.075-.786-.22v-.893q.393.209.758.316.368.104.709.104.346 0 .53-.115.184-.115.184-.33 0-.192-.126-.296-.124-.105-.497-.187l-.41-.09q-.615-.132-.9-.42-.283-.29-.283-.778 0-.613.395-.942.396-.33 1.137-.33.338 0 .695.052.357.05.739.151zM52.903 44.786v.874h1.014v.703h-1.014v1.305q0 .214.085.29.085.075.338.075h.505v.703h-.843q-.582 0-.826-.242-.242-.244-.242-.826v-1.305h-.489v-.703h.489v-.874h.983zM55.985 46.289q-.327 0-.5.236-.17.233-.17.676 0 .442.17.678.173.234.5.234.321 0 .491-.234.17-.236.17-.678 0-.443-.17-.676-.17-.236-.491-.236zm0-.703q.794 0 1.239.428.447.429.447 1.187t-.447 1.186q-.445.429-1.24.429-.796 0-1.246-.429-.448-.428-.448-1.186t.448-1.187q.45-.428 1.247-.428zM58.113 45.66h.956l.517 2.12.519-2.12h.82l.517 2.098.52-2.098h.955l-.81 3.076h-1.074l-.52-2.115-.515 2.115h-1.074l-.81-3.076zM64.963 47.352q-.307 0-.464.104-.154.104-.154.308 0 .186.124.294.126.104.349.104.277 0 .467-.198.19-.2.19-.5v-.112h-.512zm1.503-.371v1.755h-.992v-.456q-.198.28-.445.41-.247.126-.601.126-.478 0-.777-.278-.297-.28-.297-.725 0-.54.37-.794.374-.252 1.17-.252h.58v-.077q0-.234-.184-.34-.184-.11-.574-.11-.316 0-.588.063-.271.063-.505.19v-.75q.316-.078.635-.116.318-.041.637-.041.832 0 1.2.33.37.326.37 1.065zM69.671 46.498q-.13-.06-.258-.088-.127-.03-.256-.03-.379 0-.585.244-.203.242-.203.695v1.417h-.983V45.66h.983v.505q.19-.302.434-.44.247-.14.59-.14.05 0 .108.006.057.003.167.017l.003.89zM70.014 45.66h2.684v.686l-1.62 1.687h1.62v.703h-2.752v-.687l1.62-1.686h-1.552v-.703zM73.036 45.66h.983l.827 2.087.703-2.087h.983l-1.294 3.367q-.195.514-.456.717-.258.206-.683.206h-.569v-.645h.308q.25 0 .362-.08.115-.08.179-.286l.027-.085-1.37-3.194zM79.512 45.756v.747q-.316-.132-.61-.198t-.555-.066q-.28 0-.417.072-.135.068-.135.214 0 .118.102.181.104.063.37.094l.174.024q.755.097 1.016.316.261.22.261.69 0 .491-.363.738-.362.248-1.082.248-.305 0-.631-.05-.324-.046-.668-.143v-.747q.294.143.602.215.31.071.629.071.288 0 .434-.08.145-.08.145-.236 0-.132-.101-.195-.1-.066-.399-.102l-.173-.021q-.656-.083-.92-.305-.264-.223-.264-.676 0-.489.336-.725.335-.236 1.027-.236.272 0 .571.04.3.042.651.13zM80.309 45.66h2.683v.686l-1.62 1.687h1.62v.703H80.24v-.687l1.62-1.686H80.31v-.703zM86.804 47.19v.28h-2.299q.036.346.25.519.214.173.599.173.31 0 .634-.09.327-.094.67-.28v.757q-.348.132-.697.198-.349.069-.698.069-.835 0-1.299-.423-.461-.426-.461-1.192 0-.753.453-1.184.456-.431 1.252-.431.726 0 1.16.436.436.437.436 1.168zm-1.01-.327q0-.28-.165-.45-.162-.174-.426-.174-.286 0-.464.162-.179.16-.223.462h1.277zM90.638 46.863v1.873h-.988v-1.434q0-.398-.02-.549-.016-.151-.06-.222-.058-.097-.157-.149-.098-.055-.225-.055-.307 0-.483.24-.176.235-.176.656v1.513h-.983V45.66h.983v.45q.223-.269.472-.395.25-.13.553-.13.532 0 .807.328.277.326.277.95zM91.556 45.66h.983v3.076h-.983V45.66zm0-1.198h.983v.802h-.983v-.802zM96.56 47.19v.28h-2.299q.036.346.25.519.214.173.599.173.31 0 .634-.09.327-.094.67-.28v.757q-.348.132-.697.198-.349.069-.698.069-.835 0-1.299-.423-.461-.426-.461-1.192 0-.753.453-1.184.456-.431 1.252-.431.725 0 1.16.436.436.437.436 1.168zm-1.01-.327q0-.28-.165-.45-.163-.174-.426-.174-.286 0-.464.162-.179.16-.223.462h1.277zM99.301 44.635h1.058v4.101H99.3v-4.1zM104.448 46.863v1.873h-.989v-1.434q0-.398-.019-.549-.016-.151-.06-.222-.058-.097-.157-.149-.099-.055-.225-.055-.308 0-.483.24-.176.235-.176.656v1.513h-.983V45.66h.983v.45q.222-.269.472-.395.25-.13.552-.13.533 0 .808.328.277.326.277.95zM107.39 44.462v.646h-.544q-.209 0-.291.077-.083.074-.083.26v.215h.84v.703h-.84v2.373h-.983v-2.373H105v-.703h.49v-.214q0-.503.28-.742.28-.242.867-.242h.753zM109.28 46.289q-.327 0-.5.236-.17.233-.17.676 0 .442.17.678.173.234.5.234.32 0 .491-.234.17-.236.17-.678 0-.443-.17-.676-.17-.236-.492-.236zm0-.703q.793 0 1.238.428.448.429.448 1.187t-.448 1.186q-.445.429-1.239.429-.796 0-1.246-.429-.448-.428-.448-1.186t.448-1.187q.45-.428 1.246-.428zM113.968 46.498q-.13-.06-.258-.088-.127-.03-.256-.03-.379 0-.585.244-.203.242-.203.695v1.417h-.983V45.66h.983v.505q.19-.302.434-.44.247-.14.59-.14.05 0 .108.006.057.003.167.017l.003.89zM117.313 46.17q.187-.285.442-.433.259-.151.566-.151.53 0 .808.327.277.326.277.95v1.873h-.989v-1.604q.003-.036.003-.074.003-.039.003-.11 0-.327-.096-.472-.096-.149-.31-.149-.28 0-.434.231-.151.23-.157.667v1.511h-.988v-1.604q0-.51-.088-.656-.088-.149-.313-.149-.283 0-.437.234-.154.23-.154.662v1.513h-.989V45.66h.99v.45q.18-.26.414-.392.236-.132.519-.132.319 0 .563.153.244.154.37.432zM121.708 47.352q-.308 0-.464.104-.154.104-.154.308 0 .186.123.294.127.104.35.104.277 0 .466-.198.19-.2.19-.5v-.112h-.511zm1.502-.371v1.755h-.991v-.456q-.198.28-.445.41-.248.126-.602.126-.478 0-.777-.278-.297-.28-.297-.725 0-.54.371-.794.374-.252 1.17-.252h.58v-.077q0-.234-.184-.34-.184-.11-.574-.11-.316 0-.588.063-.272.063-.506.19v-.75q.316-.078.635-.116.318-.041.637-.041.832 0 1.2.33.371.326.371 1.065zM125.204 44.786v.874h1.014v.703h-1.014v1.305q0 .214.085.29.085.075.338.075h.505v.703h-.843q-.582 0-.826-.242-.242-.244-.242-.826v-1.305h-.49v-.703h.49v-.874h.983zM126.418 45.66h.983l.827 2.087.703-2.087h.984l-1.294 3.367q-.195.514-.456.717-.258.206-.684.206h-.568v-.645h.307q.25 0 .363-.08.115-.08.178-.286l.028-.085-1.37-3.194zM132.977 45.756v.802q-.2-.137-.404-.203-.2-.066-.417-.066-.412 0-.643.242-.228.238-.228.67 0 .43.228.673.23.239.643.239.23 0 .436-.07.21-.068.385-.202v.804q-.23.086-.47.127-.236.044-.475.044-.832 0-1.302-.426-.47-.429-.47-1.19 0-.76.47-1.186.47-.428 1.302-.428.242 0 .475.044.237.04.47.126zM133.68 45.66h2.684v.686l-1.621 1.687h1.62v.703h-2.752v-.687l1.62-1.686h-1.55v-.703zM140.198 46.863v1.873h-.989v-1.434q0-.398-.02-.549-.016-.151-.06-.222-.057-.097-.156-.149-.1-.055-.225-.055-.308 0-.484.24-.176.235-.176.656v1.513h-.983V45.66h.983v.45q.223-.269.473-.395.25-.13.552-.13.533 0 .807.328.278.326.278.95zM144.186 47.19v.28h-2.3q.037.346.25.519.215.173.6.173.31 0 .634-.09.327-.094.67-.28v.757q-.349.132-.697.198-.35.069-.698.069-.835 0-1.3-.423-.46-.426-.46-1.192 0-.753.453-1.184.456-.431 1.252-.431.725 0 1.16.436.436.437.436 1.168zm-1.011-.327q0-.28-.165-.45-.162-.174-.425-.174-.286 0-.465.162-.178.16-.222.462h1.277z" style="line-height:0%;-inkscape-font-specification:'sans-serif Bold'"/></g></svg>