<svg xmlns="http://www.w3.org/2000/svg" width="150" height="50" version="1"><text style="text-align:start;line-height:125%" x="-.03" y="48.692" font-size="6.062" font-weight="700" fill="#602600" font-family="Bitstream Vera Sans"><tspan x="-.03" y="48.692">Akademickie Stowarzyszenie Informatyczne</tspan></text><path d="M97.927 21.069l.83-.836h.85l.91-.897h.778l.859-.844h1.725l.84.844h2.585l.925.921v1.748l1.592 1.657h5.19l.839.844h2.508v1.688h-.888l-.8.8v.941h-1.788l-1.653.844h-3.886s-.296.26-.313.972l-.018.716h4.281v12.767S99.6 43.208 99.03 43.2c-.561-.008-1.109-.793-1.103-1.268.005-.476 0-20.863 0-20.863zm34.9 18.203l-1.505 1.43h-1.675v-1.738s1.554-.847 1.841-.847h.48v-1.98l-.897-.893v-.849l-.82-.815h-.868l-.001-.818-5.939-5.987h-.84l-1.766-1.769v-1.621l.883-.883h.86l1.696-1.703s-1.587-2.348-2.422-3.136c-.322.408-.421.616-.994.891-.587.283-.524.131-1.17.532-.34.195-1.038-.348-.296-.71.862-.418.921-.561.966-.708.072-.239-.153-.127-.802.071-.408.126-.224.103-.716.156-.122.17-.851.832-1.176.954-.24.305-.245.303-.397.44-.588.534-1.056-.311-.623-.484.426-.169.31-.418.612-.685.492-.556.985-1.099 1.402-1.473.6-.351 1.523-.732 2.33-.983.879-.272 1.52.481 1.52.481l2.678 2.928h2.483l.868-.873v-.861l.844-.772v-.862l-.844-.762V11.47l-.87-.834-.847-.004-.839-.844h-.857l-1.687 1.688h-.86v-.871l-1.742-1.739V6.33l-.844-.839v-.857s1.624-1.919 3.25-2.288c.232-.053 1.037-.216 1.566-.22.948-.007.965-.005 1.198.131.13.076.918.385.976.41.446.192.788.34.85.435.06.094.204.313.32.488.114.174.265.493.333.708.116.363.99 2.125 1.802 2.94l.809.81h2.09c1.521 0 2.598.122 3.45.459 1.06.418 2.194 1.206 3.728 2.763 0 0 1.464 1.536 2.21 2.564.745 1.027 1.316 2.967 1.316 4.01v1.229h.804l.844-.844h2.598l1.715 1.785v.852s-.936.003-1.12.18l-.568.649v2.6h-.869l-.864-.86-.852.849v3.326l-1.75 1.75h-.854l-.825.825v.85l-.844.844v5.95l.872.868h5.986v1.688h-1.76l-.845.844h-5.088l-.8.793v.948h-1.794v-2.585h-1.708l-.84.84-.855.03-.844 1.71-.818.005.014-3.698zm5.735-3.26l.739-.75v-4.425h-.714l-1.474-1.477h-.431l-1.881.738h-1.432l-.768-.762V27.83h-.715l-.733-.739h-.767v1.454l.79.786v.744l.74.733v1.512l1.45 1.414 1.48.004.376.383c.324.328.43.488.75 1.133.36.723.375.766.375 1.133v.382l.71.715h1.505v-1.472zM136.77 17.3l-.739-.662v-.76l-.738-.734-.453-1.506c-.284.025-.454.108-.758.428S133.6 15.2 133.6 15.2l-.899 4.994 4.068.146V17.3zm-30.043.985l-3.432-.005-.839-.844H99.05V12.23l.884-.03c.97-.033 1.334-.105 2.17-.428 1.248-.482 2.705-1.393 4.384-2.74l.238-.191 2.546-.002s.064.397.064.591c.002.816.225 2.056.811 4.5.542 2.262.723 3.297.8 4.577l.035.567-3.412-.002-.844-.785z" fill="#602600"/><g transform="matrix(.4295 0 0 .4295 -66.883 -286.342)" fill-rule="evenodd"><rect width="21.555" height="76.591" x="155.722" y="691.022" ry="7.074" rx="7.074" fill="#863601"/><rect width="21.555" height="22" x="181.08" y="720.254" ry="7.074" rx="7.074" fill="#9a3d00"/><rect width="21.555" height="59.134" x="669.982" y="-329.893" ry="7.074" rx="7.074" transform="rotate(90)" fill="#d65502"/><rect rx="7.074" ry="7.074" y="683.012" x="206.439" height="84.601" width="21.555" fill="#ae4502"/><rect transform="rotate(90)" rx="7.074" ry="7.074" y="-303.612" x="695.34" height="59.134" width="21.555" fill="#c24d02"/><rect width="21.555" height="59.134" x="746.058" y="-303.612" ry="7.074" rx="7.074" transform="rotate(90)" fill="#c24d01"/><rect transform="rotate(90)" rx="7.074" ry="7.074" y="-329.893" x="720.699" height="59.134" width="21.555" fill="#d65502"/><rect rx="7.074" ry="7.074" y="670.178" x="347.913" height="97.435" width="22.062" fill="#e85d03"/><rect rx="7.074" ry="7.074" y="670.354" x="181.08" height="32" width="21.555" fill="#9a3d00"/></g></svg>