<?xml version="1.0" encoding="UTF-8"?>
<svg xmlns="http://www.w3.org/2000/svg" xmlns:xlink="http://www.w3.org/1999/xlink" width="1024px" height="287px" viewBox="0 0 1025 287" version="1.1">
<g id="surface1">
<path style=" stroke:none;fill-rule:nonzero;fill:rgb(37.64706%,14.901961%,0%);fill-opacity:1;" d="M 669.171875 134.300781 L 674.84375 128.585938 L 680.652344 128.585938 L 686.867188 122.457031 L 692.183594 122.457031 L 698.054688 116.691406 L 709.84375 116.691406 L 715.582031 122.457031 L 733.246094 122.457031 L 739.566406 128.75 L 739.566406 140.695312 L 750.445312 152.019531 L 785.910156 152.019531 L 791.644531 157.785156 L 808.78125 157.785156 L 808.78125 169.320312 L 802.714844 169.320312 L 797.246094 174.789062 L 797.246094 181.21875 L 785.03125 181.21875 L 773.734375 186.984375 L 747.179688 186.984375 C 747.179688 186.984375 745.15625 188.761719 745.042969 193.628906 L 744.917969 198.519531 L 774.171875 198.519531 L 774.171875 285.761719 C 774.171875 285.761719 680.601562 285.582031 676.707031 285.527344 C 672.875 285.472656 669.128906 280.109375 669.171875 276.863281 C 669.203125 273.613281 669.171875 134.300781 669.171875 134.300781 Z M 907.652344 258.6875 L 897.371094 268.460938 L 885.925781 268.460938 L 885.925781 256.582031 C 885.925781 256.582031 896.542969 250.796875 898.503906 250.796875 L 901.785156 250.796875 L 901.785156 237.265625 L 895.65625 231.164062 L 895.65625 225.363281 L 890.050781 219.792969 L 884.121094 219.792969 L 884.113281 214.203125 L 843.53125 173.292969 L 837.789062 173.292969 L 825.722656 161.203125 L 825.722656 150.125 L 831.757812 144.09375 L 837.632812 144.09375 L 849.222656 132.457031 C 849.222656 132.457031 838.378906 116.410156 832.671875 111.027344 C 830.472656 113.8125 829.792969 115.234375 825.878906 117.113281 C 821.867188 119.046875 822.296875 118.011719 817.882812 120.75 C 815.5625 122.082031 810.792969 118.371094 815.863281 115.898438 C 821.753906 113.042969 822.15625 112.066406 822.460938 111.058594 C 822.953125 109.425781 821.417969 110.191406 816.980469 111.546875 C 814.195312 112.40625 815.453125 112.25 812.089844 112.613281 C 811.257812 113.773438 806.273438 118.296875 804.054688 119.128906 C 802.414062 121.214844 802.378906 121.199219 801.339844 122.136719 C 797.324219 125.785156 794.125 120.011719 797.082031 118.828125 C 799.996094 117.675781 799.203125 115.972656 801.265625 114.148438 C 804.628906 110.351562 807.996094 106.640625 810.847656 104.082031 C 814.945312 101.683594 821.253906 99.082031 826.769531 97.367188 C 832.773438 95.507812 837.15625 100.652344 837.15625 100.652344 L 855.453125 120.660156 L 872.421875 120.660156 L 878.351562 114.695312 L 878.351562 108.8125 L 884.121094 103.535156 L 884.121094 97.648438 L 878.351562 92.441406 L 878.351562 68.707031 L 872.40625 63.007812 L 866.621094 62.980469 L 860.886719 57.214844 L 855.03125 57.214844 L 843.503906 68.75 L 837.625 68.75 L 837.625 62.796875 L 825.722656 50.914062 L 825.722656 33.585938 L 819.953125 27.851562 L 819.953125 21.996094 C 819.953125 21.996094 831.050781 8.882812 842.164062 6.359375 C 843.75 5.996094 849.25 4.882812 852.863281 4.855469 C 859.34375 4.808594 859.457031 4.824219 861.050781 5.75 C 861.9375 6.269531 867.324219 8.382812 867.71875 8.554688 C 870.765625 9.867188 873.105469 10.875 873.527344 11.527344 C 873.9375 12.167969 874.921875 13.664062 875.714844 14.859375 C 876.492188 16.050781 877.527344 18.230469 877.992188 19.699219 C 878.78125 22.179688 884.753906 34.21875 890.304688 39.789062 L 895.832031 45.324219 L 910.113281 45.324219 C 920.507812 45.324219 927.867188 46.15625 933.6875 48.460938 C 940.933594 51.316406 948.679688 56.703125 959.164062 67.339844 C 959.164062 67.339844 969.167969 77.835938 974.265625 84.863281 C 979.355469 91.878906 983.257812 105.136719 983.257812 112.261719 L 983.257812 120.660156 L 988.75 120.660156 L 994.519531 114.894531 L 1012.273438 114.894531 L 1023.992188 127.089844 L 1023.992188 132.914062 C 1023.992188 132.914062 1017.59375 132.933594 1016.339844 134.144531 L 1012.457031 138.578125 L 1012.457031 156.34375 L 1006.519531 156.34375 L 1000.613281 150.46875 L 994.792969 156.269531 L 994.792969 178.996094 L 982.835938 190.957031 L 977 190.957031 L 971.359375 196.59375 L 971.359375 202.402344 L 965.59375 208.167969 L 965.59375 248.828125 L 971.550781 254.757812 L 1012.457031 254.757812 L 1012.457031 266.292969 L 1000.429688 266.292969 L 994.65625 272.058594 L 959.886719 272.058594 L 954.421875 277.480469 L 954.421875 283.957031 L 942.164062 283.957031 L 942.164062 266.292969 L 930.492188 266.292969 L 924.75 272.03125 L 918.910156 272.238281 L 913.140625 283.921875 L 907.550781 283.957031 L 907.648438 258.6875 Z M 946.84375 236.410156 L 951.894531 231.285156 L 951.894531 201.046875 L 947.015625 201.046875 L 936.941406 190.957031 L 933.996094 190.957031 L 921.144531 196 L 911.359375 196 L 906.109375 190.792969 L 906.109375 180.5 L 901.222656 180.5 L 896.214844 175.449219 L 890.972656 175.449219 L 890.972656 185.386719 L 896.371094 190.757812 L 896.371094 195.839844 L 901.429688 200.851562 L 901.429688 211.183594 L 911.335938 220.84375 L 921.449219 220.871094 L 924.019531 223.488281 C 926.234375 225.730469 926.957031 226.824219 929.144531 231.230469 C 931.605469 236.171875 931.707031 236.464844 931.707031 238.972656 L 931.707031 241.582031 L 936.558594 246.46875 L 946.84375 246.46875 Z M 934.597656 108.546875 L 929.546875 104.023438 L 929.546875 98.828125 L 924.503906 93.8125 L 921.410156 83.523438 C 919.46875 83.691406 918.308594 84.261719 916.230469 86.445312 C 914.152344 88.632812 912.9375 94.195312 912.9375 94.195312 L 906.792969 128.320312 L 934.589844 129.320312 L 934.589844 108.546875 Z M 729.304688 115.277344 L 705.851562 115.242188 L 700.117188 109.476562 L 676.84375 109.476562 L 676.84375 73.902344 L 682.886719 73.695312 C 689.511719 73.46875 692 72.976562 697.714844 70.769531 C 706.242188 67.476562 716.199219 61.253906 727.671875 52.046875 L 729.296875 50.742188 L 746.695312 50.730469 C 746.695312 50.730469 747.132812 53.441406 747.132812 54.765625 C 747.144531 60.34375 748.667969 68.816406 752.675781 85.515625 C 756.378906 100.972656 757.613281 108.046875 758.140625 116.792969 L 758.378906 120.667969 L 735.0625 120.65625 L 729.296875 115.289062 Z M 729.304688 115.277344 "/>
<path style=" stroke:none;fill-rule:evenodd;fill:rgb(52.549022%,21.176471%,0.392157%);fill-opacity:1;" d="M 20.761719 61.75 L 42.5 61.75 C 53.96875 61.75 63.261719 71.046875 63.261719 82.511719 L 63.261719 265.777344 C 63.261719 277.242188 53.96875 286.539062 42.5 286.539062 L 20.761719 286.539062 C 9.296875 286.539062 0 277.242188 0 265.777344 L 0 82.511719 C 0 71.046875 9.296875 61.75 20.761719 61.75 Z M 20.761719 61.75 "/>
<path style=" stroke:none;fill-rule:evenodd;fill:rgb(60.392159%,23.921569%,0%);fill-opacity:1;" d="M 95.183594 147.542969 L 116.925781 147.542969 C 128.390625 147.542969 137.6875 156.839844 137.6875 168.304688 L 137.6875 191.351562 C 137.6875 202.816406 128.390625 212.113281 116.925781 212.113281 L 95.183594 212.113281 C 83.71875 212.113281 74.421875 202.816406 74.421875 191.351562 L 74.421875 168.304688 C 74.421875 156.839844 83.71875 147.542969 95.183594 147.542969 Z M 95.183594 147.542969 "/>
<path style=" stroke:none;fill-rule:evenodd;fill:rgb(83.92157%,33.333334%,0.784314%);fill-opacity:1;" d="M 511.175781 20.761719 L 511.175781 42.5 C 511.175781 53.96875 501.882812 63.261719 490.414062 63.261719 L 358.386719 63.261719 C 346.917969 63.261719 337.625 53.96875 337.625 42.5 L 337.625 20.761719 C 337.625 9.296875 346.917969 0 358.386719 0 L 490.414062 0 C 501.882812 0 511.175781 9.296875 511.175781 20.761719 Z M 511.175781 20.761719 "/>
<path style=" stroke:none;fill-rule:evenodd;fill:rgb(68.235296%,27.058825%,0.784314%);fill-opacity:1;" d="M 169.613281 38.242188 L 191.351562 38.242188 C 202.816406 38.242188 212.113281 47.539062 212.113281 59.003906 L 212.113281 265.777344 C 212.113281 277.242188 202.816406 286.539062 191.351562 286.539062 L 169.613281 286.539062 C 158.144531 286.539062 148.851562 277.242188 148.851562 265.777344 L 148.851562 59.003906 C 148.851562 47.539062 158.144531 38.242188 169.613281 38.242188 Z M 169.613281 38.242188 "/>
<path style=" stroke:none;fill-rule:evenodd;fill:rgb(76.078433%,30.19608%,0.784314%);fill-opacity:1;" d="M 434.042969 95.183594 L 434.042969 116.925781 C 434.042969 128.390625 424.75 137.6875 413.285156 137.6875 L 281.253906 137.6875 C 269.785156 137.6875 260.492188 128.390625 260.492188 116.925781 L 260.492188 95.183594 C 260.492188 83.71875 269.785156 74.421875 281.253906 74.421875 L 413.285156 74.421875 C 424.75 74.421875 434.042969 83.71875 434.042969 95.183594 Z M 434.042969 95.183594 "/>
<path style=" stroke:none;fill-rule:evenodd;fill:rgb(76.078433%,30.19608%,0.392157%);fill-opacity:1;" d="M 434.042969 244.039062 L 434.042969 265.777344 C 434.042969 277.242188 424.75 286.539062 413.285156 286.539062 L 281.253906 286.539062 C 269.785156 286.539062 260.492188 277.242188 260.492188 265.777344 L 260.492188 244.039062 C 260.492188 232.570312 269.785156 223.277344 281.253906 223.277344 L 413.285156 223.277344 C 424.75 223.277344 434.042969 232.570312 434.042969 244.039062 Z M 434.042969 244.039062 "/>
<path style=" stroke:none;fill-rule:evenodd;fill:rgb(83.92157%,33.333334%,0.784314%);fill-opacity:1;" d="M 511.175781 169.613281 L 511.175781 191.351562 C 511.175781 202.816406 501.882812 212.113281 490.414062 212.113281 L 358.386719 212.113281 C 346.917969 212.113281 337.625 202.816406 337.625 191.351562 L 337.625 169.613281 C 337.625 158.144531 346.917969 148.851562 358.386719 148.851562 L 490.414062 148.851562 C 501.882812 148.851562 511.175781 158.144531 511.175781 169.613281 Z M 511.175781 169.613281 "/>
<path style=" stroke:none;fill-rule:evenodd;fill:rgb(90.980393%,36.470589%,1.176471%);fill-opacity:1;" d="M 584.828125 0.574219 L 608.054688 0.574219 C 619.519531 0.574219 628.816406 9.871094 628.816406 21.335938 L 628.816406 265.777344 C 628.816406 277.242188 619.519531 286.539062 608.054688 286.539062 L 584.828125 286.539062 C 573.359375 286.539062 564.066406 277.242188 564.066406 265.777344 L 564.066406 21.335938 C 564.066406 9.871094 573.359375 0.574219 584.828125 0.574219 Z M 584.828125 0.574219 "/>
<path style=" stroke:none;fill-rule:evenodd;fill:rgb(60.392159%,23.921569%,0%);fill-opacity:1;" d="M 95.183594 1.09375 L 116.925781 1.09375 C 128.390625 1.09375 137.6875 10.386719 137.6875 21.851562 L 137.6875 74.246094 C 137.6875 85.714844 128.390625 95.007812 116.925781 95.007812 L 95.183594 95.007812 C 83.71875 95.007812 74.421875 85.714844 74.421875 74.246094 L 74.421875 21.851562 C 74.421875 10.386719 83.71875 1.09375 95.183594 1.09375 Z M 95.183594 1.09375 "/>
</g>
</svg>
